<svg width="32" height="32" viewBox="0 0 32 32" xmlns="http://www.w3.org/2000/svg" class="icon-size-28px purchase" data-class="max400" data-html="true" data-isicon="true" tabindex="-1"><g id="Page-1" stroke="none" stroke-width="1" fill="none" fill-rule="evenodd"><g id="Icon/Light/Agenda/Puchase"><path id="Rectangle" d="M0 0h32v32H0z"></path><path d="M7 5h10l4 4v16a2 2 0 01-2 2H7a2 2 0 01-2-2V7a2 2 0 012-2zm10 0v4h4" id="Combined-Shape" stroke="#1E1B18" stroke-width="1.5" stroke-linejoin="round"></path><rect id="svg382-Rectangle" fill="#004B96" x="8" y="12" width="8" height="1.5" rx="0.75"></rect><rect id="svg383-Rectangle" fill="#004B96" x="8" y="16" width="10" height="1.5" rx="0.75"></rect><rect id="svg384-Rectangle" fill="#004B96" x="8" y="20" width="5" height="1.5" rx="0.75"></rect><circle id="Oval" fill="#FFF" cx="22" cy="22" r="8"></circle><circle id="svg385-Oval" stroke="#1E1B18" stroke-width="1.5" cx="22" cy="22" r="6.25"></circle><rect id="svg386-Rectangle" fill="#004B96" x="19" y="21.25" width="6" height="1.5" rx="0.75"></rect></g></g></svg>

