<svg width="32" height="32" viewBox="0 0 32 32" xmlns="http://www.w3.org/2000/svg" class="icon-size-28px priceList" data-class="max400" data-html="true" data-isicon="true" tabindex="-1"><g id="Page-1" stroke="none" stroke-width="1" fill="none" fill-rule="evenodd"><g id="Icon/Light/Agenda/Pricelist"><path id="Rectangle" d="M0 0h32v32H0z"></path><path d="M26 7.75H6A1.246 1.246 0 004.75 9v3.475c.88.347 1.553.767 2.03 1.245.652.651.97 1.413.97 2.28 0 .867-.318 1.629-.97 2.28-.477.478-1.15.898-2.03 1.245V23A1.246 1.246 0 006 24.25h20A1.246 1.246 0 0027.25 23v-3.475c-.88-.347-1.553-.767-2.03-1.245-.652-.651-.97-1.413-.97-2.28 0-.867.318-1.629.97-2.28.477-.478 1.15-.898 2.03-1.245V9A1.246 1.246 0 0026 7.75z" id="svg380-Rectangle" stroke="#1E1B18" stroke-width="1.5"></path><path d="M16 19.5a1 1 0 110 2 1 1 0 010-2zm5.182-4.25a.75.75 0 010 1.5h-10.5a.75.75 0 110-1.5h10.5zM16 10.5a1 1 0 110 2 1 1 0 010-2z" id="Combined-Shape" fill="#004B96" transform="rotate(-45 15.932 16)"></path></g></g></svg>

